<?xml version="1.0" encoding="utf-8"?>
<!-- Generator: Adobe Illustrator 18.0.0, SVG Export Plug-In . SVG Version: 6.00 Build 0)  -->
<!DOCTYPE svg PUBLIC "-//W3C//DTD SVG 1.1//EN" "http://www.w3.org/Graphics/SVG/1.1/DTD/svg11.dtd">
<svg version="1.1" id="Layer_1" xmlns="http://www.w3.org/2000/svg" xmlns:xlink="http://www.w3.org/1999/xlink" x="0px" y="0px"
	 viewBox="0 0 1700 1400" enable-background="new 0 0 1700 1400" xml:space="preserve">
<g>
	<rect fill="#FFFFFF" width="1700" height="1400"/>
	<g>
		<g>
			<path fill="#C8EEFC" d="M219.2,1312.2c22.1-61.4-8.4-129.4-48.3-181S80.3,1035.1,52.9,976c-34.6-74.5-25.9-167.3,21.9-234.1
				S207.6,637,289.3,645.8c-54.9-38.8-79.5-120.1-61.1-184.8s80.2-114.6,147.3-118.8c58-3.7,114,23.5,172.1,24.5
				c61.6,1.1,120.1-27.1,171.7-60.9s99.4-73.8,154.6-101.2c55.3-27.3,121.3-40.9,178.6-18.1c73.5,29.2,115,121.1,88.4,195.6
				c69.3-43.1,145.3-72.2,226.8-75.1c81.5-2.9,167.8,31.3,210.7,100.7c37.9,61.4,36.8,140.6,14.1,209.1
				c-22.8,68.5-64.8,128.6-106.2,187.6c52.4-28.5,120.3,8.6,153.6,58.1c33.3,49.4,34.6,115.1,17.4,172.2
				c-17.2,57.1-50.7,107.7-83.7,157.3c-30.1,45.2-60.2,90.4-90.3,135.7l-59.1,15.1H257.3L219.2,1312.2z"/>
			<path fill="#C8EEFC" d="M507.9,268.4c2.7,17,17.5,30.2,33.8,35.4c16.4,5.2,34.1,3.7,51,0.5c21.5-4.1,43.1-11.2,59.6-25.5
				c16.5-14.3,27-37.2,21.8-58.5c-6.5-26.9-36.3-43.4-63.9-42.1s-52.8,16.6-73.6,34.8C520.1,227.2,504.4,246.9,507.9,268.4z"/>
			<path fill="#C8EEFC" d="M92.3,554.2c-5.9,14.5-3.8,31.9,5.3,44.5c9.1,12.7,24.9,20.2,40.5,19.3c22-1.3,41.5-20.3,43.5-42.2
				s-13.9-44.1-35.3-49.3S100.6,533.8,92.3,554.2z"/>
		</g>
		<g>
			<g>
				<path fill="#F1F2F2" d="M580.2,1023.3l10.9-18.1c0,0-18.3-207.7-105.9-343.2l-4.1,172.8c16,49.9,32.1,99.9,48.1,149.8
					c-0.6,1.1-1.2,2.2-1.9,3.3C549.9,988.9,570.5,1003.1,580.2,1023.3z"/>
				<path fill="#E6E7E8" d="M527.4,987.8c-0.6,0-1.2-0.1-1.8-0.1c-5.8,7.1-11.3,15.8-17.1,22.9c1.7,0.5,3.3,1.1,4.9,1.7
					c20.9,8.1,37.9,26,44.9,47.3c0.5,1.5,1,3.1,1.4,4.6c7.2-11.8,15.9-22.8,23.1-34.6c-0.7-2.2-1.6-4.3-2.6-6.3
					C570.5,1003.1,549.9,988.9,527.4,987.8z"/>
			</g>
			<path fill="#FFBF83" d="M505.8,1025.9c-10.2,18.1-20.3,36.4-30.4,54.6l-2.9,121.7l77.3-128.3
				C539.8,1054.3,524.4,1037.5,505.8,1025.9z"/>
			<path fill="#EB633E" d="M549.8,1073.9l8.6-14.3c-7-21.3-24-39.2-44.9-47.3c-2.6,4.5-5.1,9.1-7.6,13.6
				C524.4,1037.5,539.8,1054.3,549.8,1073.9z"/>
			<path fill="#FFFFFF" d="M274.5,604.9c0,0-64.8,9.8-105.6,27.5c29.2,127.3,46.5,306.5,34.3,432.8h294.3
				c30.5-168-5.1-379.8-12.2-403.2L415,635.4l-47.9-11.2L274.5,604.9z"/>
			<g>
				<path fill="#EB633E" d="M399.8,605.1c-3.5-19-3.2-38.5,1.9-57.4c-25-15.4-51.4-27.6-80.7-34.1c0.3,14.8-1.9,29.6-6.4,43.9
					C332.9,585.8,366,604.4,399.8,605.1z"/>
				<path fill="#FFBF83" d="M314.5,557.5c-4.8,15.2-12.3,29.7-22.2,42.8l74.8,24l41.5,11.2c-3.9-9.9-6.9-20-8.8-30.3
					C366,604.4,332.9,585.8,314.5,557.5z"/>
			</g>
			<path fill="#E6E7E8" d="M289.6,582.5c1.1,0,94.3,45.7,94.3,45.7L347.4,663l-73-58L289.6,582.5z"/>
			<g>
				<path fill="#FFBF83" d="M334.5,559.6l32.8,24.5c30,22.4,73.2,7.1,82.4-29.2l20.4-80.7c10-39.4-13.8-79.4-53.2-89.3l0,0
					c-39.4-10-79.4,13.8-89.3,53.2l-15.1,59.5C306.7,520.8,315.3,545.3,334.5,559.6z"/>
				<path fill="#5E3B1D" d="M318.1,518.5c-9.9-9.9-14.4-24.2-14.8-38.2c-0.4-14,2.8-27.8,6.4-41.4c6.4-24,14.6-48.6,31.4-66.9
					c21.1-22.8,53.7-32.9,84.7-31s62.2,17.1,88.3,33.9c5.1,19-4.1,41-21.3,50.6c-12.4,7-27.7,7.6-41.6,4.5
					c-13.9-3.2-26.2-11.1-38.5-18.2c-16.3,7.1-32.6,14.3-48.9,21.4c-3.4,16.3-7.5,34.1-14.2,49.3
					C343.1,497.9,332.4,509.9,318.1,518.5z"/>
				<path fill="#FFBF83" d="M290.2,483.8c-1.9,10,0.7,20.9,7,28.9c6.3,8,16.3,13.1,26.5,13.5c5.4-8.7,9.8-18.4,10.3-28.6
					c0.5-10.2-3.5-21.1-12-26.9s-21.5-4.9-27.7,3.2C292.2,476.8,290.9,480.3,290.2,483.8z"/>
				<path fill="#F89E6A" d="M445.9,546.8c-9.5-2.7-19.1-8.2-26.4-14.8c4.9-17.6,9.9-35.2,14.8-52.8
					C442.6,499.7,447.4,524.7,445.9,546.8z"/>
				<path fill="#EB633E" d="M383.9,546.8c0.6,12.2,9.6,22.7,22.1,24.8c12.5,2.1,24.4-4.9,28.9-16.2L383.9,546.8z"/>
			</g>
			<polygon fill="#E6E7E8" points="383.9,628.2 408.6,622.7 415,635.4 399.4,665.7 			"/>
			<g>
				<path fill="#E6E7E8" d="M538.9,845.6h-34.9c-7.5,0-13.6-6.1-13.6-13.6v-67.8c0-7.5,6.1-13.6,13.6-13.6h25.4v10.2h-25.4
					c-1.9,0-3.4,1.5-3.4,3.4V832c0,1.9,1.5,3.4,3.4,3.4h34.9V845.6z"/>
			</g>
			<rect x="523.9" y="737.3" fill="#FFFFFF" width="82.5" height="114"/>
			<g>
				<path fill="#F1F2F2" d="M227.6,881.5c0-114.6-18.2-211-58.7-249.1c-42.6,79.5-28.2,276.5,0,362.1c31-1.6,73.9-21.3,116.8-46.4
					v-90.3L227.6,881.5z"/>
				<polygon fill="#E6E7E8" points="316.2,838.1 285.7,848.3 285.7,857.8 285.7,948.1 285.7,957.6 325.9,931.1 325.1,923.6 
					316.9,845.1 				"/>
			</g>
			<rect x="197.2" y="1065.2" fill="#1A1A42" width="306.5" height="31.6"/>
			<g>
				<path fill="#25228A" d="M393.1,1096.8H197.6c-17.2,70.3-28.7,245.9-28.7,245.9h213C391.5,1261.2,395.3,1178.9,393.1,1096.8z"/>
				<path fill="#3D3DAE" d="M500.5,1096.8H393.1c2.2,82.1-1.6,164.4-11.3,245.9h104.7C499,1235.8,500.5,1096.8,500.5,1096.8z"/>
			</g>
			<path fill="#EB633E" d="M316.9,845.1l8.2,78.6c5.8-3.8,11.6-7.6,17.2-11.4c-4.1-24.2-8.1-48.3-12.2-72.5L316.9,845.1z"/>
			<path fill="#FFBF83" d="M509.7,835.1v-74.2l-83.5,39.7l-96,39.2c4.1,24.2,8.1,48.3,12.2,72.5c57.6-39,103.9-77.1,103.9-77.1
				H509.7z"/>
		</g>
		<g>
			<g>
				<path fill="#FFBF83" d="M730.6,852.1c-7.4,99-26.1,197.2-55.7,292c30.3-6.8,57.4-27.6,75-53.2c17.6-25.6,28.2-55.2,37.6-84.7
					c0.6-1.7,1.1-3.5,1.6-5.2c-5.3-40.8-17.8-80.6-36.9-117C746.2,872.8,739.2,861.4,730.6,852.1z"/>
				<path fill="#EB633E" d="M840.6,712.5c-4.7-30.2-27.8-62.3-53.2-79.2c-23.9,10.2-39.5,34.3-46.5,59.3c-6.9,25-6.5,51.4-6.8,77.4
					c-0.3,27.4-1.5,54.8-3.5,82.1c8.7,9.3,15.7,20.6,21.6,31.9c19.1,36.4,31.6,76.2,36.9,117c20.4-64.6,36.2-130.6,47.2-197.4
					C841.3,773.5,845.3,742.7,840.6,712.5z"/>
			</g>
			<g>
				<path fill="#42BCDB" d="M803.4,1009.3c56.2-0.9,112.3-5.4,167.9-13.3c-6.6-21.1-10.5-37.6-10.1-47.8c2-49,55-137,65.2-166
					c10.2-29,33.8-90,0-165.3c-50.2-70.1-167.1-67.9-233.5-30.4c-18.2,35.3-36.5,70.7-54.7,106c-11.7,22.6-23.7,47.3-19.4,72.4
					c3.1,18.2,14.4,33.8,22.1,50.5c14.5,31.2,16.7,67,12.2,101.1c-3.9,29.3-12.7,57.7-21.7,85.9
					C754.2,1009.2,779.3,1009.7,803.4,1009.3z"/>
				<path fill="#004E78" d="M602.2,1342.7h474c-15.8-121.4-79.8-266.9-104.9-346.7c-55.6,7.9-111.8,12.4-167.9,13.3
					c-24.1,0.4-49.2-0.2-72-6.9c-1.5,4.6-3,9.2-4.4,13.8C714.5,1055.6,602.2,1263.2,602.2,1342.7z"/>
			</g>
			<path fill="#361633" d="M765.1,529.3c4.2,13.6-0.2,28.3-6,41.3c-5.7,13-12.9,25.8-14.5,40c-1.5,14.1,4.5,30.4,17.9,35.3
				c16.1,5.8,32.5-7,44.9-18.9c13.1-12.6,26.2-25.2,39.4-37.8c11.5-11,23.3-22.5,29.5-37.2c10.4-24.7,3.2-54,13.3-78.8
				c6.1-15,17.9-26.9,24.9-41.5c9.8-20.3,9.1-45.2-1.6-65c-10.7-19.8-31.3-33.9-53.6-36.8c-23.1,15.4-46.9,31.5-62.2,54.7
				c-7.6,11.6-12.8,24.7-18,37.6c-7.3,18.4-14.6,36.8-21.9,55.2c-2.7,6.7-5.4,13.7-4.8,20.9C753.3,509.6,761.8,518.6,765.1,529.3z"
				/>
			<g>
				<path fill="#FFBF83" d="M920.6,546.1c-18.1,13.8-39.7,23-62.1,26.6c-0.2,1.3-0.3,2.5-0.6,3.8c-3,14.3-11.9,26.8-22.2,37.2
					c13.9,10.9,30.5,17,48.1,15.1s34.3-10.7,45.6-24.3C923.3,585.8,920.3,565.9,920.6,546.1z"/>
				<path fill="#EB633E" d="M925,508.5c-27.1,9.2-52.8,19.2-79.9,28.4c10.7,8.1,15,22.5,13.4,35.8c22.5-3.6,44.1-12.8,62.1-26.6
					C920.8,533.4,922.2,520.7,925,508.5z"/>
			</g>
			<path fill="#FFBF83" d="M970.8,423c2.7-17.6,2.5-36.1-4.5-52.5c-11.7-27.2-42.1-44.3-71.7-42.5c-29.6,1.8-56.8,21-70.8,47.1
				c-7.6,14.3-11.5,30.2-14.3,46.1c-4.4,24.9-6.1,50.2-5.2,75.4c0.7,21.5,5.5,46.2,24.4,56.4c16,8.7,36,3.1,52.2-5.2
				C928.3,523.5,962.8,475.6,970.8,423z"/>
			<path fill="#F89E6A" d="M852.7,425.2c-17.5,27.5-25,62-25,62c5.5,7.5,19.5,8,19.5,8C854.3,464.2,852.7,425.2,852.7,425.2z"/>
			<path fill="#EB633E" d="M867.3,513.8c-16.4,3.2-34-0.8-47.4-10.8c-1.7,8.1,0.6,17.4,7.1,22.5c6.5,5.1,15.5,6.5,23.5,4.2
				C858.3,527.4,863.4,521.1,867.3,513.8z"/>
			<path fill="#3BB1CC" d="M902.9,838.1c-18.9,5.9-37.8,11.8-56.6,17.7c-15.5,4.8-32.2,9.7-47.6,4.5c-16-5.4-26.5-20.3-36-34.3
				c-11.2-16.6-22.4-33.2-33.6-49.8c25.5-10.6,55.3-10.2,80.6,1c20.2,9,38.4,24.7,60.5,25.6c11.2,0.4,22.4-3.2,33.5-1.7
				c11.1,1.5,22.6,11.5,19.5,22.2C920.8,831.7,911.2,835.5,902.9,838.1z"/>
			<g>
				<path fill="#361633" d="M949.5,1057.6c27,3.2,54.4-8.6,74.3-27.2c10.8-10.1,19.6-22.1,26.9-35l-169.3,23.4
					C900.9,1038,922.9,1054.4,949.5,1057.6z"/>
				<path fill="#52274C" d="M1023.8,1030.4c-19.9,18.6-47.2,30.4-74.3,27.2c-26.6-3.2-48.7-19.5-68.1-38.9l-0.5,0.1l16.8,172.5
					l159-10.5V994.5l-6,0.8C1043.4,1008.3,1034.6,1020.2,1023.8,1030.4z"/>
			</g>
			<g>
				
					<rect x="897.4" y="616.5" transform="matrix(0.9919 0.1269 -0.1269 0.9919 111.0994 -107.9355)" fill="#361633" width="10" height="402.4"/>
			</g>
			<path fill="#52274C" d="M1026.4,616.9c10.7-6.9,12.2-22,9.4-34.4c-2.8-12.4-8.7-24.2-9-36.8c-0.5-21.9,16-43.2,9.9-64.3
				c-4.6-15.7-20.6-25.8-25.7-41.3c-9.4-28.4,21.3-58.5,12.6-87.2c-4.7-15.3-20-25.4-35.7-28.8c-15.7-3.4-31.9-1.3-47.9,0.2
				c-16,1.5-32.5,2.5-47.6-3c-10.4-3.8-19.7-10.4-30.5-12.9c-10.8-2.5-25.2,3.9-28.2,14.5c-3.3,11.4,4.2,23.4,14,30.2
				s21.5,9.9,32.1,15.1c10.7,5.2,21,13.6,23.2,25.2c2.8,15.3-9.2,31-4.4,45.8c4.7,14.5,23.5,20.9,28.1,35.4
				c6.1,19.4-16.3,36.6-17.7,56.9c-0.9,12.5,6.3,24.1,7.7,36.5c1.8,15.9-6,31.2-14.4,44.8c-8.5,13.6-18.1,27.1-20.7,42.9
				c-2.6,15.8,4.6,34.6,19.9,39c13.4,3.8,27.7-4.8,35.3-16.3c7.7-11.6,10.4-25.6,13.9-39.1c3.5-13.5,8.2-27.4,18.7-36.5
				c10.4-9.2,28-11.5,37.7-1.5C1012.7,607.1,1019.7,612.3,1026.4,616.9z"/>
			<g>
				<path fill="#EB633E" d="M1040.3,714.4l-4.4-15.5c-11.4-7.6-29.1-12.1-42.2-8.4c-13.1,3.7-30.3,14.2-35.9,26.7l8.6,21.4
					c9.1-8.7,20.1-15.5,31.9-19.7C1011.7,714.1,1026.2,712.6,1040.3,714.4z"/>
				<path fill="#FFBF83" d="M1102.6,933.2l-62.3-218.8c-14.1-1.8-28.6-0.3-41.9,4.5c-11.9,4.2-22.8,11-31.9,19.7l67.7,167.8
					l34.5,11.1l-27,7.4l-189.1,70.2l-33.3,41.9l68.2,43.9l9.4-63.2l164.3-21.7C1091.2,992.1,1110.8,962.4,1102.6,933.2z"/>
				<polygon fill="#EB633E" points="1034.2,906.4 1041.6,924.9 1068.6,917.5 				"/>
			</g>
		</g>
		<g>
			<path fill="#F89E6A" d="M1404,477.3c3,21.8,8,43.1,14.1,64.3c-28,6.1-52.7,15.5-78.9,27c-2.5-14.7-4.7-27.2-7.2-41.9
				c-21.4-1.1-41.2,18.7-62,13.4c-11.8-3-20.4-13.8-24.1-25.4c-3.7-11.6-4.1-25.2-3.7-37.4c-10.9-1.5-21.8-2.9-32.6-4.4
				c7.4-14.1,19.2-26.8,29.5-38.9c0.1-18.7,3.6-37.3,10.3-54.7c9.4-24.6,33.6-44.4,59.5-49.3c25.9-4.9,54.1,4.2,71.8,23.8
				c14.2,15.7,21.2,37,23.4,58.1S1401.2,456.2,1404,477.3z"/>
			<path fill="#594A42" d="M1388.1,341.8c11.2-8.3,27.9-6.4,38.9,2.1c11,8.6,16.8,22.5,18.1,36.4c1.4,13.9-1.3,27.8-4.4,41.4
				c-3.2,13.8-7.1,27.5-14,39.9c-6.9,12.3-17.2,23.2-30.2,28.6c-13.1,5.4-30.1,6.8-41.2-2c16.5-8,26.2-28,22.3-45.9
				c-1.6-7.4-6.2-15-13.6-16.7c-7.2-1.6-14.5,3.1-18.7,9.1c-5,7.3-6.6,16.5-6.2,25.3c0.4,8.8,2.7,19.9,4,28.6
				c1.5,9.8-1.8,19.9-7.2,28.3c-5.4,8.4-12.7,15.3-19.9,22.2c-9.6,9.2-20.5,18.9-33.8,19.2c-11,0.3-21.3-6.3-28.2-14.9
				c-6.9-8.6-11-19-15.1-29.2c-2.3-5.9-4.6-11.9-4.9-18.2c-0.3-6.3,1.9-13.1,7-16.8c6.4-4.6,15.5-3.2,22.5,0.4c7,3.6,13,9.1,20,12.7
				c7,3.6,16.1,5.1,22.5,0.5c5.9-4.2,7.7-12.1,9.1-19.2c4.2-22.7,7.6-45.6,10.1-68.5c1-8.9,1.7-18.7-3.3-26.1
				c-6.4-9.6-19.7-11.8-31.1-10.1c-11.4,1.7-22.3,6.4-33.8,7c-11.5,0.6-63-12.1-35-63.4c-0.1,4.6,5,7.2,9.5,7
				c4.6-0.2,8.7-2.8,12.5-5.3c16.8-10.8,34.5-20.8,53.8-25.9c19.3-5.1,40.8-4.7,58.5,4.6C1374.2,302.3,1389.6,321.9,1388.1,341.8z"
				/>
			<path fill="#FADACE" d="M1380.8,564c-67.9,8.4-119.7,69.5-139.1,135.1s-13.5,135.7-8.7,204c4.8,68.3,7.8,139.1-17.1,202.9
				c4.7,0.6,10.6,0.7,15.3,1.4l290.5-0.2c16.6-89.6,26.2-180.8,24.2-271.8c-1.3-55.2-6.1-111.1-24.6-163.2s-51.6-100.5-99.3-128.4
				C1410.9,553.1,1395.2,562.2,1380.8,564z"/>
			<path fill="#FFE7DC" d="M1428.8,515c-40.8,5.1-79.8,23.7-109.5,52l-5.5,33.1l121.6-51.3L1428.8,515z"/>
			<polygon fill="#361633" points="1521.7,1144.1 1213.9,1144.1 1224.2,1106 1521.7,1107.2 			"/>
			<g>
				<path fill="#52274C" d="M1215.9,1144.1c-13.7,63.6-28.7,198.6-28.7,198.6h236.9c23.3-64.9,42.4-131.3,57.1-198.6H1215.9z"/>
				<path fill="#361633" d="M1521.7,1144.1h-40.4c-14.7,67.4-33.8,133.7-57.1,198.6h108.1L1521.7,1144.1z"/>
			</g>
			<path fill="#F89E6A" d="M1063.8,829.1c-19.7,8.7-39.5,17.4-59.2,26.1c-10.4,4.6-23.1,9-32.4,2.6c-8.7-6-9.6-19.5-4.2-28.5
				c5.5-9.1,15.5-14.4,25.7-17.5c10.1-3.1,20.8-4.5,30.7-8c3.4-1.2,6.9-2.8,9.3-5.4c2.5-2.6,3.9-6.6,2.6-10
				c-1.4-3.8-5.5-5.8-9.5-6.7c-3.9-0.9-8.1-1.2-11.6-3.2c-3.5-1.9-6.2-6.4-4.5-10c1.9-4,7.5-4.4,11.9-3.8
				c19.6,2.6,38.3,12,52.1,26.2C1071.2,803,1067.4,816.9,1063.8,829.1z"/>
			<path fill="#FFE7DC" d="M1363,629.6c-42.9,77.5-73.1,162-89.2,249.1c-64.4-33.1-136.8-64-201.2-97.1c-10,26.2-15.3,35-25.2,61.2
				c80.7,39.7,155,97.3,235.8,137.1c17.1,8.4,37.8,3.8,49.5-11.2c40.5-51.5,101.8-240.3,94.4-272.7S1394.9,638.7,1363,629.6z"/>
		</g>
		<g>
			<path fill="#FAF0D7" d="M518.4,70.8H155.1c-16.5,0-29.8,13.4-29.8,29.8v162.3c0,16.5,13.4,29.8,29.8,29.8h108.1l29.2,58.5
				l9.9-58.5h216.2c16.5,0,29.8-13.4,29.8-29.8V100.6C548.2,84.1,534.9,70.8,518.4,70.8z"/>
			<path fill="#FAF0D7" d="M1018.4,94.8H758c-16.5,0-29.8,13.4-29.8,29.8v108.3c0,16.5,13.4,29.8,29.8,29.8h155.8l7.6,37.5
				l18.7-37.5h78.3c16.5,0,29.8-13.4,29.8-29.8V124.6C1048.3,108.1,1034.9,94.8,1018.4,94.8z"/>
			<path fill="#FAF0D7" d="M1528.4,57.3h-312.9c-16.5,0-29.8,13.4-29.8,29.8V223c0,16.5,13.4,29.8,29.8,29.8h197l-13.4,55l60.4-55
				h68.9c16.5,0,29.8-13.4,29.8-29.8V87.1C1558.2,70.6,1544.9,57.3,1528.4,57.3z"/>
		</g>
	</g>
</g>
</svg>
